<svg version="1.1" id="Layer_1" xmlns="http://www.w3.org/2000/svg" xmlns:xlink="http://www.w3.org/1999/xlink" x="0px" y="0px"
width="44px" height="44px" viewBox="0 0 44 44" enable-background="new 0 0 44 44" xml:space="preserve">
<path fill="#841F10  " d="M30.017,17.863v0.517c0,5.54-4.21,11.97-11.97,11.97c-2.362,0-4.58-0.666-6.427-1.922
c0.295,0.074,0.663,0.074,1.033,0.074c1.995,0,3.768-0.666,5.245-1.773c-1.848,0-3.399-1.256-3.917-2.955
c0.223,0.074,0.518,0.074,0.813,0.074c0.369,0,0.74-0.074,1.108-0.148c-1.921-0.371-3.4-2.07-3.4-4.137v-0.074
c0.591,0.295,1.185,0.516,1.922,0.516c-1.107-0.74-1.847-2.07-1.847-3.473c0-0.74,0.219-1.479,0.59-2.143
c2.069,2.586,5.172,4.209,8.718,4.432c-0.073-0.295-0.073-0.664-0.073-0.959c0-2.364,1.918-4.21,4.21-4.21
c1.183,0,2.29,0.516,3.103,1.33c0.961-0.223,1.849-0.518,2.661-1.035c-0.298,0.96-0.96,1.847-1.847,2.365
c0.888-0.074,1.699-0.297,2.439-0.666c-0.887,0.887-1.551,1.625-2.365,2.217L30.017,17.863z M22,2.716
c10.642,0,19.285,8.644,19.285,19.284c0,10.641-8.644,19.283-19.285,19.283C11.359,41.283,2.717,32.641,2.717,22
C2.717,11.36,11.359,2.716,22,2.716 M22,0.5C10.106,0.5,0.5,10.105,0.5,22c0,11.895,9.681,21.5,21.5,21.5
c11.896,0,21.5-9.68,21.5-21.5C43.5,10.105,33.896,0.5,22,0.5z"/>
</svg>