<svg version="1.1" id="Layer_1" xmlns="http://www.w3.org/2000/svg" xmlns:xlink="http://www.w3.org/1999/xlink" x="0px" y="0px"
width="44px" height="44px" viewBox="0 0 44 44" enable-background="new 0 0 44 44" xml:space="preserve">
<path fill="#841F10  " d="M23.516,31.982v-9.381h2.879c0,0,0.297-1.701,0.371-3.547h-3.25v-2.438c0,0,0.441-0.813,0.959-0.813h2.363
v-3.694H23.66c-4.506,0-4.432,3.546-4.432,4.064v2.88h-2.07v3.548h2.07v9.381H23.516z M22,2.762
c10.641,0,19.285,8.644,19.285,19.284c0,10.639-8.645,19.284-19.285,19.284C11.359,41.402,2.716,32.76,2.716,22.046
C2.716,11.406,11.361,2.762,22,2.762 M22,0.546c-11.82,0-21.5,9.68-21.5,21.5c0,11.819,9.68,21.499,21.5,21.499
c11.895,0,21.5-9.68,21.5-21.499C43.5,10.227,33.895,0.546,22,0.546z"/>
</svg>