<svg version="1.1" id="Layer_1" xmlns="http://www.w3.org/2000/svg" xmlns:xlink="http://www.w3.org/1999/xlink" x="0px" y="0px"
width="44px" height="44px" viewBox="0 0 44 44" enable-background="new 0 0 44 44" xml:space="preserve">
<g>
<path fill="#841F10  " d="M22,43.52C10.108,43.52,0.48,33.893,0.48,22c0-11.893,9.628-21.52,21.52-21.52
c11.893,0,21.521,9.627,21.521,21.52C43.521,33.893,33.893,43.52,22,43.52z M22,2.746C11.353,2.746,2.746,11.354,2.746,22
c0,10.646,8.607,19.255,19.254,19.255c10.648,0,19.255-8.609,19.255-19.255C41.255,11.354,32.647,2.746,22,2.746z M26.758,19.282
c-1.812,0-2.604,1.02-3.058,1.699v-1.473h-3.398v10.308H23.7v-5.777c0-0.34,0-0.566,0.113-0.793C24.04,22.68,24.605,22,25.625,22
c1.246,0,1.699,0.906,1.699,2.378v5.551h3.398v-5.891C30.723,20.755,29.023,19.282,26.758,19.282z M16.677,14.525
c-1.133,0-1.926,0.793-1.926,1.812c0,1.02,0.793,1.812,1.926,1.812c1.246,0,1.926-0.792,1.926-1.812
C18.49,15.318,17.81,14.525,16.677,14.525L16.677,14.525z M14.865,19.509h3.398v10.308h-3.398V19.509z"/>
</g>
</svg>